# xmcd CD database file
#
# Track frame offsets:
#	150
#	17788
#	32601
#	52037
#	68387
#
# Disc length: 1218 seconds
#
# Revision: 0
# Processed by: cddbd v1.5.1PL0 Copyright (c) Steve Scherf et al.
# Submitted via: CDex 1.51
#
DISCID=3604c005
DTITLE=サルサガムテープ - レガート・アリガート
DYEAR=1900
DGENRE=Salsa
TTITLE0=さすらい
TTITLE1=ONABE
TTITLE2=ホレ！ホレ！
TTITLE3=これからもよろしく
TTITLE4=あのね
EXTD=
EXTT0=
EXTT1=
EXTT2=
EXTT3=
EXTT4=
PLAYORDER=
